<?xml version="1.0" encoding="UTF-8" standalone="no"?>
<!DOCTYPE svg PUBLIC "-//W3C//DTD SVG 1.1//EN"
 "http://www.w3.org/Graphics/SVG/1.1/DTD/svg11.dtd">
<!-- Generated by graphviz version 2.40.1 (20161225.0304)
 -->
<!-- Title: Pet Pages: 1 -->
<svg width="250pt" height="412pt"
 viewBox="0.00 0.00 250.00 412.00" xmlns="http://www.w3.org/2000/svg" xmlns:xlink="http://www.w3.org/1999/xlink">
<g id="graph0" class="graph" transform="scale(1 1) rotate(0) translate(4 408)">
<title>Pet</title>
<polygon fill="#ffffff" stroke="transparent" points="-4,4 -4,-408 246,-408 246,4 -4,4"/>
<!-- Pet -->
<g id="node1" class="node">
<title>Pet</title>
<polygon fill="#efefef" stroke="transparent" points="46,-322.5 46,-357.5 196,-357.5 196,-322.5 46,-322.5"/>
<polygon fill="none" stroke="#000000" points="46,-322.5 46,-357.5 196,-357.5 196,-322.5 46,-322.5"/>
<text text-anchor="start" x="107.4937" y="-334.3" font-family="Arial Bold" font-size="18.00" fill="#000000">Pet</text>
<polygon fill="none" stroke="#000000" points="46,-292.5 46,-322.5 196,-322.5 196,-292.5 46,-292.5"/>
<text text-anchor="start" x="53" y="-303.9" font-family="Arial" font-size="14.00" fill="#000000">id </text>
<text text-anchor="start" x="67.7798" y="-303.9" font-family="Arial" font-size="14.00" fill="#666666">[varchar(255)]</text>
<polygon fill="none" stroke="#000000" points="46,-262.5 46,-292.5 196,-292.5 196,-262.5 46,-262.5"/>
<text text-anchor="start" x="52.5463" y="-273.9" font-family="Arial" font-size="14.00" fill="#000000">user_id </text>
<text text-anchor="start" x="102.3345" y="-273.9" font-family="Arial" font-size="14.00" fill="#666666">[varchar(255)]</text>
<polygon fill="none" stroke="#000000" stroke-width="3" points="44.5,-261.5 44.5,-359.5 197.5,-359.5 197.5,-261.5 44.5,-261.5"/>
</g>
<!-- User -->
<g id="node2" class="node">
<title>User</title>
<polygon fill="#efefef" stroke="transparent" points="51,-102.5 51,-137.5 191,-137.5 191,-102.5 51,-102.5"/>
<polygon fill="none" stroke="#000000" points="51,-102.5 51,-137.5 191,-137.5 191,-102.5 51,-102.5"/>
<text text-anchor="start" x="102.0037" y="-114.3" font-family="Arial Bold" font-size="18.00" fill="#000000">User</text>
<polygon fill="none" stroke="#000000" points="51,-72.5 51,-102.5 191,-102.5 191,-72.5 51,-72.5"/>
<text text-anchor="start" x="58" y="-83.9" font-family="Arial" font-size="14.00" fill="#000000">id </text>
<text text-anchor="start" x="72.7798" y="-83.9" font-family="Arial" font-size="14.00" fill="#666666">[varchar(255)]</text>
<polygon fill="none" stroke="#000000" points="51,-42.5 51,-72.5 191,-72.5 191,-42.5 51,-42.5"/>
<text text-anchor="start" x="57.9909" y="-53.9" font-family="Arial" font-size="14.00" fill="#000000">name </text>
<text text-anchor="start" x="96.8899" y="-53.9" font-family="Arial" font-size="14.00" fill="#666666">[varchar(255)]</text>
</g>
<!-- Pet&#45;&gt;User -->
<g id="edge1" class="edge">
<title>Pet:user_id&#45;&gt;User:id</title>
<path fill="none" stroke="#000000" d="M121.935,-252.3304C129.1207,-216.133 175.7071,-222.2765 191,-181 205.4372,-142.033 232.5556,-87.5 191,-87.5"/>
<polygon fill="#000000" stroke="#000000" points="121.9156,-252.542 116.5189,-262.088 121.4578,-257.521 121,-262.5 121,-262.5 121,-262.5 121.4578,-257.521 125.4811,-262.912 121.9156,-252.542 121.9156,-252.542"/>
</g>
</g>
</svg>
