<?xml version="1.0" encoding="UTF-8" standalone="no"?>
<!DOCTYPE svg PUBLIC "-//W3C//DTD SVG 1.1//EN"
 "http://www.w3.org/Graphics/SVG/1.1/DTD/svg11.dtd">
<!-- Generated by graphviz version 2.40.1 (20161225.0304)
 -->
<!-- Title: db Pages: 1 -->
<svg width="244pt" height="406pt"
 viewBox="0.00 0.00 244.00 406.00" xmlns="http://www.w3.org/2000/svg" xmlns:xlink="http://www.w3.org/1999/xlink">
<g id="graph0" class="graph" transform="scale(1 1) rotate(0) translate(4 402)">
<title>db</title>
<polygon fill="#ffffff" stroke="transparent" points="-4,4 -4,-402 240,-402 240,4 -4,4"/>
<!-- Card -->
<g id="node1" class="node">
<title>Card</title>
<polygon fill="#efefef" stroke="transparent" points="43,-319.5 43,-354.5 193,-354.5 193,-319.5 43,-319.5"/>
<polygon fill="none" stroke="#000000" points="43,-319.5 43,-354.5 193,-354.5 193,-319.5 43,-319.5"/>
<text text-anchor="start" x="98.5006" y="-331.3" font-family="Arial Bold" font-size="18.00" fill="#000000">Card</text>
<polygon fill="none" stroke="#000000" points="43,-289.5 43,-319.5 193,-319.5 193,-289.5 43,-289.5"/>
<text text-anchor="start" x="50" y="-300.9" font-family="Arial" font-size="14.00" fill="#000000">id </text>
<text text-anchor="start" x="64.7798" y="-300.9" font-family="Arial" font-size="14.00" fill="#666666">[varchar(255)]</text>
<polygon fill="none" stroke="#000000" points="43,-259.5 43,-289.5 193,-289.5 193,-259.5 43,-259.5"/>
<text text-anchor="start" x="49.5463" y="-270.9" font-family="Arial" font-size="14.00" fill="#000000">user_id </text>
<text text-anchor="start" x="99.3345" y="-270.9" font-family="Arial" font-size="14.00" fill="#666666">[varchar(255)]</text>
</g>
<!-- Users -->
<g id="node2" class="node">
<title>Users</title>
<polygon fill="#efefef" stroke="transparent" points="48,-102.5 48,-137.5 188,-137.5 188,-102.5 48,-102.5"/>
<polygon fill="none" stroke="#000000" points="48,-102.5 48,-137.5 188,-137.5 188,-102.5 48,-102.5"/>
<text text-anchor="start" x="94.5037" y="-114.3" font-family="Arial Bold" font-size="18.00" fill="#000000">Users</text>
<polygon fill="none" stroke="#000000" points="48,-72.5 48,-102.5 188,-102.5 188,-72.5 48,-72.5"/>
<text text-anchor="start" x="55" y="-83.9" font-family="Arial" font-size="14.00" fill="#000000">id </text>
<text text-anchor="start" x="69.7798" y="-83.9" font-family="Arial" font-size="14.00" fill="#666666">[varchar(255)]</text>
<polygon fill="none" stroke="#000000" points="48,-42.5 48,-72.5 188,-72.5 188,-42.5 48,-42.5"/>
<text text-anchor="start" x="54.9909" y="-53.9" font-family="Arial" font-size="14.00" fill="#000000">name </text>
<text text-anchor="start" x="93.8899" y="-53.9" font-family="Arial" font-size="14.00" fill="#666666">[varchar(255)]</text>
</g>
<!-- Card&#45;&gt;Users -->
<g id="edge1" class="edge">
<title>Card:user_id&#45;&gt;Users:id</title>
<path fill="none" stroke="#000000" d="M119.0273,-249.1176C126.5062,-214.337 172.7187,-221.0976 188,-181 202.7987,-142.1688 229.5556,-87.5 188,-87.5"/>
<polygon fill="#000000" stroke="#000000" points="118.9848,-249.5486 113.5219,-259.0568 118.4924,-254.5243 118,-259.5 118,-259.5 118,-259.5 118.4924,-254.5243 122.4781,-259.9432 118.9848,-249.5486 118.9848,-249.5486"/>
</g>
</g>
</svg>
