<?xml version="1.0" encoding="UTF-8" standalone="no"?>
<!DOCTYPE svg PUBLIC "-//W3C//DTD SVG 1.1//EN"
 "http://www.w3.org/Graphics/SVG/1.1/DTD/svg11.dtd">
<!-- Generated by graphviz version 2.40.1 (20161225.0304)
 -->
<!-- Title: Users Pages: 1 -->
<svg width="244pt" height="412pt"
 viewBox="0.00 0.00 244.00 412.00" xmlns="http://www.w3.org/2000/svg" xmlns:xlink="http://www.w3.org/1999/xlink">
<g id="graph0" class="graph" transform="scale(1 1) rotate(0) translate(4 408)">
<title>Users</title>
<polygon fill="#ffffff" stroke="transparent" points="-4,4 -4,-408 240,-408 240,4 -4,4"/>
<!-- Users -->
<g id="node1" class="node">
<title>Users</title>
<polygon fill="#efefef" stroke="transparent" points="48,-105.5 48,-140.5 188,-140.5 188,-105.5 48,-105.5"/>
<polygon fill="none" stroke="#000000" points="48,-105.5 48,-140.5 188,-140.5 188,-105.5 48,-105.5"/>
<text text-anchor="start" x="94.5037" y="-117.3" font-family="Arial Bold" font-size="18.00" fill="#000000">Users</text>
<polygon fill="none" stroke="#000000" points="48,-75.5 48,-105.5 188,-105.5 188,-75.5 48,-75.5"/>
<text text-anchor="start" x="55" y="-86.9" font-family="Arial" font-size="14.00" fill="#000000">id </text>
<text text-anchor="start" x="69.7798" y="-86.9" font-family="Arial" font-size="14.00" fill="#666666">[varchar(255)]</text>
<polygon fill="none" stroke="#000000" points="48,-45.5 48,-75.5 188,-75.5 188,-45.5 48,-45.5"/>
<text text-anchor="start" x="54.9909" y="-56.9" font-family="Arial" font-size="14.00" fill="#000000">name </text>
<text text-anchor="start" x="93.8899" y="-56.9" font-family="Arial" font-size="14.00" fill="#666666">[varchar(255)]</text>
<polygon fill="none" stroke="#000000" stroke-width="3" points="46.5,-44.5 46.5,-142.5 189.5,-142.5 189.5,-44.5 46.5,-44.5"/>
</g>
<!-- Card -->
<g id="node2" class="node">
<title>Card</title>
<polygon fill="#efefef" stroke="transparent" points="43,-325.5 43,-360.5 193,-360.5 193,-325.5 43,-325.5"/>
<polygon fill="none" stroke="#000000" points="43,-325.5 43,-360.5 193,-360.5 193,-325.5 43,-325.5"/>
<text text-anchor="start" x="98.5006" y="-337.3" font-family="Arial Bold" font-size="18.00" fill="#000000">Card</text>
<polygon fill="none" stroke="#000000" points="43,-295.5 43,-325.5 193,-325.5 193,-295.5 43,-295.5"/>
<text text-anchor="start" x="50" y="-306.9" font-family="Arial" font-size="14.00" fill="#000000">id </text>
<text text-anchor="start" x="64.7798" y="-306.9" font-family="Arial" font-size="14.00" fill="#666666">[varchar(255)]</text>
<polygon fill="none" stroke="#000000" points="43,-265.5 43,-295.5 193,-295.5 193,-265.5 43,-265.5"/>
<text text-anchor="start" x="49.5463" y="-276.9" font-family="Arial" font-size="14.00" fill="#000000">user_id </text>
<text text-anchor="start" x="99.3345" y="-276.9" font-family="Arial" font-size="14.00" fill="#666666">[varchar(255)]</text>
</g>
<!-- Card&#45;&gt;Users -->
<g id="edge1" class="edge">
<title>Card:user_id&#45;&gt;Users:id</title>
<path fill="none" stroke="#000000" d="M119.0273,-255.1176C126.5062,-220.337 172.7187,-227.0976 188,-187 203.2735,-146.9229 230.8889,-90.5 188,-90.5"/>
<polygon fill="#000000" stroke="#000000" points="118.9848,-255.5486 113.5219,-265.0568 118.4924,-260.5243 118,-265.5 118,-265.5 118,-265.5 118.4924,-260.5243 122.4781,-265.9432 118.9848,-255.5486 118.9848,-255.5486"/>
</g>
</g>
</svg>
